<svg width="18" height="16" viewBox="0 0 18 16" fill="none" xmlns="http://www.w3.org/2000/svg">
<path d="M12.2859 0C10.1821 0 8.47659 1.79086 8.47659 4C8.47659 4.33382 8.51553 4.65809 8.58891 4.96808C6.56599 4.96808 3.51902 4.55908 0.974316 2.00961C0.635933 1.67059 0.0119625 1.89726 0.0354339 2.37567C0.412559 10.0627 3.70465 12.3049 5.39998 12.4444C4.30523 13.5257 2.71498 14.3791 1.11477 14.7622C0.692441 14.8633 0.588114 15.3256 1.00108 15.4599C2.14611 15.8323 3.78504 15.9758 4.66723 16C10.9081 16 15.9805 10.7471 16.0934 4.22229C16.9127 3.68945 17.4376 2.5325 17.7325 1.71291C17.8043 1.5133 17.4772 1.28073 17.2813 1.36226C16.6693 1.61708 15.8922 1.67749 15.2303 1.46181C14.5316 0.569266 13.4721 0 12.2859 0Z" fill="#FF4D24"/>
</svg>
