<svg width="20" height="18" viewBox="0 0 20 18" fill="none" xmlns="http://www.w3.org/2000/svg">
<path fill-rule="evenodd" clip-rule="evenodd" d="M4 0C1.79086 0 0 1.79086 0 4V14C0 16.2091 1.79086 18 4 18H16C18.2091 18 20 16.2091 20 14V4C20 1.79086 18.2091 0 16 0H4ZM4.41603 4.37592C4.07138 4.14616 3.60573 4.23929 3.37597 4.58393C3.1462 4.92858 3.23933 5.39423 3.58398 5.624L7.36518 8.1448C8.9607 9.20848 11.0393 9.20848 12.6348 8.14479L16.416 5.624C16.7607 5.39423 16.8538 4.92858 16.624 4.58393C16.3943 4.23929 15.9286 4.14616 15.584 4.37592L11.8028 6.89672C10.7111 7.6245 9.2889 7.6245 8.19723 6.89672L4.41603 4.37592Z" fill="#FF4D24"/>
</svg>
