<svg width="178" height="24" viewBox="0 0 178 24" fill="none" xmlns="http://www.w3.org/2000/svg">
<path d="M0 24V0H6.07949L12.9366 14.4L19.7937 0H25.8732V24H20.7834V8.83478L15.0574 20.8696H10.8158L5.08981 8.83478V24H0Z" fill="white"/>
<path d="M31.687 24V0H48.3703V4.52174H36.7769V9.39131H47.3099V13.913H36.7769V19.4783H48.3703V24H31.687Z" fill="white"/>
<path d="M52.6654 18.1565V5.84348C52.6654 1.94783 54.6448 0 58.6035 0H68.0408L70.409 1.8087V4.52174H58.8156C58.1087 4.52174 57.7552 4.86957 57.7552 5.56522V18.4348C57.7552 19.1304 58.1087 19.4783 58.8156 19.4783H70.409V22.1913L68.0408 24H58.6035C54.6448 24 52.6654 22.0522 52.6654 18.1565Z" fill="white"/>
<path d="M75.0755 24V0H80.1653V9.39131H89.2139V0H94.3037V24H89.2139V13.913H80.1653V24H75.0755Z" fill="white"/>
<path d="M97.8385 23.0609L105.084 0H112.861L120.106 23.0609L119.47 24H115.229L113.744 19.1304H104.201L102.716 24H98.4748L97.8385 23.0609ZM105.579 14.6087H112.366L109.255 4.52174H108.69L105.579 14.6087Z" fill="white"/>
<path d="M123.642 24V0H129.156L138.84 15.7565V0H143.93V24H138.416L128.731 8.24348V24H123.642Z" fill="white"/>
<path d="M149.737 24V0H154.827V24H149.737Z" fill="white"/>
<path d="M160.256 18.1565V5.84348C160.256 1.94783 162.236 0 166.194 0H175.632L178 1.8087V4.52174H166.407C165.7 4.52174 165.346 4.86957 165.346 5.56522V18.4348C165.346 19.1304 165.7 19.4783 166.407 19.4783H178V22.1913L175.632 24H166.194C162.236 24 160.256 22.0522 160.256 18.1565Z" fill="white"/>
</svg>
