<svg width="60" height="60" viewBox="0 0 60 60" fill="none" xmlns="http://www.w3.org/2000/svg">
<path d="M13.8761 19.5237C15.3104 19.5237 16.4732 18.3609 16.4732 16.9265C16.4732 15.4921 15.3104 14.3293 13.8761 14.3293C12.4417 14.3293 11.2789 15.4921 11.2789 16.9265C11.2789 18.3609 12.4417 19.5237 13.8761 19.5237Z" fill="#FF4D24"/>
<path d="M25.7607 32.6674C21.9446 27.5907 22.9698 20.356 28.0466 16.5392C30.0584 15.0272 32.4495 14.2277 34.9605 14.2277C36.7085 14.2277 38.4609 14.6325 40.0284 15.3977C41.65 16.1891 43.0838 17.3744 44.1749 18.8258C46.7582 22.2626 47.1871 26.7796 45.4267 30.5803C45.9097 31.0407 46.2159 31.6619 46.281 32.3503C46.3095 32.6521 46.2905 32.9488 46.2269 33.2338H50.1855V10.1923C50.1855 8.98144 49.2041 8 47.9932 8H7.19234C5.98144 8 5 8.98144 5 10.1923V33.2338H26.2152C26.0581 33.0504 25.9061 32.8611 25.7607 32.6674ZM43.4616 11.0466C43.6275 10.8815 43.8562 10.7784 44.1069 10.7784H46.1531C46.6558 10.7784 47.0665 11.1891 47.0665 11.6919C47.0665 11.9426 46.9635 12.1713 46.7984 12.3372C46.6332 12.5023 46.4045 12.6054 46.1531 12.6054H44.1069C43.6048 12.6054 43.1934 12.1939 43.1934 11.6919C43.1934 11.4405 43.2965 11.2118 43.4616 11.0466ZM37.3596 11.0466C37.5255 10.8815 37.7542 10.7784 38.0049 10.7784H40.0511C40.5538 10.7784 40.9645 11.1891 40.9645 11.6919C40.9645 11.9426 40.8615 12.1713 40.6964 12.3372C40.5312 12.5023 40.3025 12.6054 40.0511 12.6054H38.0049C37.5028 12.6054 37.0914 12.1939 37.0914 11.6919C37.0914 11.4405 37.1945 11.2118 37.3596 11.0466ZM31.2576 11.0466C31.4235 10.8815 31.6522 10.7784 31.9029 10.7784H33.9491C34.4518 10.7784 34.8625 11.1891 34.8625 11.6919C34.8625 11.9426 34.7595 12.1713 34.5943 12.3372C34.4292 12.5023 34.2005 12.6054 33.9491 12.6054H31.9029C31.4008 12.6054 30.9894 12.1939 30.9894 11.6919C30.9894 11.4405 31.0925 11.2118 31.2576 11.0466ZM13.07 29.7239C12.9048 29.889 12.6761 29.9921 12.4247 29.9921H9.10478C8.60201 29.9921 8.19131 29.5814 8.19131 29.0786C8.19131 28.8279 8.29362 28.5992 8.45951 28.4333C8.62539 28.2681 8.8534 28.1651 9.10478 28.1651H12.4247C12.9275 28.1651 13.3382 28.5765 13.3382 29.0786C13.3382 29.33 13.2351 29.5587 13.07 29.7239ZM19.2926 26.07C19.1267 26.2351 18.8987 26.3382 18.6473 26.3382H9.10478C8.60201 26.3382 8.19131 25.9275 8.19131 25.4247C8.19131 25.174 8.29362 24.9453 8.45951 24.7794C8.62539 24.6143 8.8534 24.5112 9.10478 24.5112H18.6473C19.1501 24.5112 19.5608 24.9226 19.5608 25.4247C19.5608 25.6761 19.4585 25.9048 19.2926 26.07ZM19.5608 17.3613C19.5608 17.6054 19.4614 17.8268 19.3013 17.9868C19.1413 18.1469 18.9206 18.2455 18.6765 18.2455C18.6261 18.2455 18.5779 18.2404 18.5296 18.2324C18.4215 18.6306 18.2607 19.0172 18.0481 19.3811C18.0787 19.4053 18.108 19.4301 18.1365 19.4579C18.4821 19.8035 18.4814 20.3633 18.1365 20.709L17.5942 21.2512C17.2486 21.5969 16.6888 21.5969 16.3431 21.2512C16.3103 21.2183 16.281 21.1825 16.254 21.146C15.8864 21.3528 15.4962 21.507 15.0957 21.6093C15.1008 21.6473 15.1045 21.6868 15.1045 21.7269C15.1045 22.2151 14.7084 22.6112 14.2202 22.6112H13.4529C13.2088 22.6112 12.9881 22.5125 12.8281 22.3518C12.6673 22.1917 12.5687 21.971 12.5687 21.7269C12.5687 21.6736 12.5738 21.6217 12.5833 21.5713C12.2172 21.4661 11.8613 21.3162 11.5244 21.1226C11.4922 21.1708 11.455 21.2169 11.4119 21.26C11.0669 21.6049 10.5064 21.6049 10.1615 21.26L9.61925 20.717C9.27359 20.3714 9.27359 19.8116 9.61925 19.4667C9.66164 19.4235 9.70768 19.3863 9.75591 19.3541C9.5491 18.9938 9.39198 18.6116 9.28602 18.2192C9.21879 18.236 9.14863 18.2455 9.07555 18.2455C8.58739 18.2455 8.19131 17.8494 8.19131 17.3613V16.594C8.19131 16.1058 8.58739 15.7097 9.07555 15.7097C9.14644 15.7097 9.21586 15.7192 9.28163 15.7353C9.3854 15.3443 9.5396 14.9651 9.74348 14.6055C9.67625 14.5668 9.61194 14.52 9.55494 14.463C9.20929 14.1174 9.20929 13.5576 9.55494 13.2119L10.0972 12.6697C10.4428 12.324 11.0026 12.324 11.3483 12.6697C11.4002 12.7216 11.444 12.7793 11.4805 12.8407C11.8357 12.6302 12.2128 12.4709 12.6008 12.3613C12.5804 12.286 12.5687 12.2078 12.5687 12.126C12.5687 11.6378 12.9648 11.2417 13.4529 11.2417H14.2202C14.7084 11.2417 15.1045 11.6378 15.1045 12.126C15.1045 12.1947 15.0957 12.2604 15.0818 12.3247C15.502 12.4307 15.9105 12.5937 16.2956 12.8151C16.3271 12.7661 16.3651 12.7208 16.4075 12.6777C16.7531 12.3328 17.3129 12.3321 17.6585 12.6777L18.2008 13.22C18.3733 13.3924 18.4602 13.619 18.4602 13.8455C18.4595 14.072 18.374 14.2979 18.2008 14.471C18.1584 14.5134 18.1116 14.5514 18.0634 14.5829C18.2717 14.9446 18.4288 15.3282 18.5348 15.7221C18.5808 15.7148 18.6283 15.7097 18.6765 15.7097C19.1647 15.7097 19.5608 16.1058 19.5608 16.594V17.3613Z" fill="#FF4D24"/>
<path d="M39.2041 38.6474C38.1291 38.6474 37.1791 38.0452 36.7041 37.1347C36.1341 37.2216 35.556 37.2655 34.9743 37.2655C33.2263 37.2655 31.4747 36.8606 29.9071 36.0955C29.3064 35.8025 28.7313 35.4554 28.1905 35.0607H5V37.2933C5 38.5034 5.98144 39.4856 7.19234 39.4856H13.2154C13.6393 39.4856 13.9827 39.8291 13.9827 40.2522C13.9827 40.858 14.2283 41.4061 14.6251 41.8022C15.0212 42.199 15.5693 42.4445 16.1751 42.4445H39.0104C40.2213 42.4445 41.2028 41.4631 41.2028 40.2522C41.2028 40.2368 41.2035 40.2208 41.2042 40.2054L39.9568 38.5458C39.7134 38.613 39.4613 38.6474 39.2041 38.6474Z" fill="#FF4D24"/>
<path d="M50.1855 37.2933V35.0607H46.601L49.4854 38.898C49.9166 38.4983 50.1855 37.9268 50.1855 37.2933Z" fill="#FF4D24"/>
<path d="M30.2182 47.7183H29.9144V44.2715H21.6179V47.7183H21.3137C20.1029 47.7183 19.1214 48.6999 19.1214 49.9106V52.0704H32.4105V49.9106C32.4106 48.6998 31.429 47.7183 30.2182 47.7183Z" fill="#FF4D24"/>
<path d="M55.3988 46.8274L51.6678 41.8639C51.0228 41.0057 49.87 40.7552 48.9427 41.2171L43.4327 33.8869L44.0724 33.406C44.6621 32.9628 44.5759 32.0532 43.9135 31.7284L42.9449 31.2536C45.2503 27.9151 45.2862 23.3449 42.7144 19.9235C39.4984 15.6451 33.4229 14.7838 29.1445 17.9999C24.8661 21.2159 24.0048 27.2914 27.2208 31.5698C29.7925 34.9911 34.1928 36.2269 38.0405 34.9403L38.2273 36.0027C38.3552 36.7292 39.205 37.0647 39.7946 36.6215L40.4343 36.1406L45.9444 43.4709C45.2434 44.2337 45.1632 45.4102 45.8083 46.2684L49.5393 51.2319C50.1843 52.09 51.3367 52.34 52.2643 51.8787L52.2872 51.909L52.6091 51.6671L53.0559 51.3312L49.6116 46.7491C49.3086 46.346 49.3899 45.773 49.7929 45.4701C50.1966 45.1666 50.769 45.2483 51.0719 45.6514L54.5163 50.2334L54.9637 49.8971L55.2855 49.6552L55.2627 49.6248C55.9642 48.8626 56.0439 47.6855 55.3988 46.8274ZM39.6931 32.0332C36.2267 34.6388 31.2868 33.9384 28.6812 30.4721C26.0757 27.0058 26.7759 22.0658 30.2423 19.4603C33.7086 16.8547 38.6486 17.555 41.2542 21.0213C43.8597 24.4876 43.1594 29.4276 39.6931 32.0332Z" fill="#FF4D24"/>
</svg>
