<svg width="139" height="55" viewBox="0 0 139 55" fill="none" xmlns="http://www.w3.org/2000/svg">
<path d="M40.0428 0C40.4428 18.5081 39.9934 35.3831 39.9934 54.3911C39.1936 54.8909 38.4913 54.8831 37.2915 54.3911C36.8916 51.4144 37.028 50.5476 37.2915 48.0912C37.7359 43.949 36.3139 42.2833 31.9599 42.5783C26.8367 42.9254 21.6566 42.4289 16.5324 42.7685C14.356 42.9128 9.5984 42.1264 9.06516 43.7261C9.06516 43.7261 7.39933 45.6384 10.5902 46.6303C13.7811 47.6222 21.8236 50.1221 21.8236 50.1221L15.5815 53.1067C15.5815 53.1067 5.78173 57.8858 3.11556 52.2581C0.449388 46.6303 -2.45142 34.6025 3.44315 26.4043C6.07542 22.7433 8.83299 22.0019 12.3593 19.0683C7.28377 19.7796 5.41352 18.2075 6.61683 14.2128C9.82139 13.4003 13.5903 10.5624 14.4415 17.2555C17.7034 4.58421 27.2298 4.28855 37.2433 5.4741C37.2433 3.1722 37.2433 1.5861 37.2433 0C38.0431 0 38.843 0 40.0428 0ZM27.202 17.0639C30.5093 17.0639 33.8166 17.0639 36.9073 17.0639C36.9073 13.8269 36.9073 11.2548 36.9073 8.72028C22.8995 8.06786 21.8849 8.53972 19.2829 17.0639C21.6582 17.0639 23.9244 17.0639 27.202 17.0639Z" fill="white"/>
<path d="M55.2941 21.088H48.7181L47.5901 25H44.2061L48.3101 11.608C48.5981 10.648 48.9021 9.904 49.2221 9.376C49.5421 8.848 49.9181 8.472 50.3501 8.248C50.7981 8.024 51.3501 7.912 52.0061 7.912C52.6621 7.912 53.2061 8.024 53.6381 8.248C54.0701 8.472 54.4461 8.848 54.7661 9.376C55.1021 9.904 55.4141 10.648 55.7021 11.608L59.8061 25H56.4221L55.2941 21.088ZM54.5501 18.568L52.5341 11.656C52.4221 11.24 52.2461 11.032 52.0061 11.032C51.7661 11.032 51.5901 11.24 51.4781 11.656L49.4621 18.568H54.5501ZM71.2818 21.472C71.2818 21.904 71.3618 22.256 71.5218 22.528C71.6978 22.8 72.0018 23.096 72.4338 23.416L70.3458 25.24C69.8178 24.968 69.4018 24.68 69.0978 24.376C68.7938 24.072 68.5618 23.712 68.4018 23.296C67.6658 24.624 66.5218 25.288 64.9698 25.288C63.7058 25.288 62.7298 24.952 62.0418 24.28C61.3538 23.608 61.0098 22.648 61.0098 21.4V13.72H64.1298V21.112C64.1298 21.656 64.2818 22.088 64.5858 22.408C64.9058 22.728 65.3378 22.888 65.8818 22.888C66.9378 22.888 67.6978 22.2 68.1618 20.824V13.72H71.2818V21.472ZM77.5406 16.12V20.776C77.5406 21.448 77.6446 21.92 77.8526 22.192C78.0606 22.464 78.4126 22.6 78.9086 22.6H80.8046V25H78.9086C77.7886 25 76.9006 24.864 76.2446 24.592C75.6046 24.32 75.1406 23.88 74.8526 23.272C74.5646 22.664 74.4206 21.832 74.4206 20.776V11.968C74.4206 11.536 74.3326 11.184 74.1566 10.912C73.9966 10.64 73.7006 10.344 73.2686 10.024L75.3566 8.2C76.1726 8.616 76.7406 9.096 77.0606 9.64C77.3806 10.168 77.5406 10.912 77.5406 11.872V13.72H80.8046V16.12H77.5406ZM87.6776 25.288C86.0136 25.288 84.7336 24.904 83.8376 24.136C82.9416 23.368 82.4936 22.272 82.4936 20.848V17.872C82.4936 16.448 82.9416 15.352 83.8376 14.584C84.7336 13.816 86.0136 13.432 87.6776 13.432C89.3416 13.432 90.6216 13.816 91.5176 14.584C92.4136 15.352 92.8616 16.448 92.8616 17.872V20.848C92.8616 22.272 92.4136 23.368 91.5176 24.136C90.6216 24.904 89.3416 25.288 87.6776 25.288ZM87.6776 22.888C88.3336 22.888 88.8376 22.712 89.1896 22.36C89.5576 22.008 89.7416 21.504 89.7416 20.848V17.872C89.7416 17.216 89.5576 16.712 89.1896 16.36C88.8376 16.008 88.3336 15.832 87.6776 15.832C87.0216 15.832 86.5096 16.008 86.1416 16.36C85.7896 16.712 85.6136 17.216 85.6136 17.872V20.848C85.6136 21.504 85.7896 22.008 86.1416 22.36C86.5096 22.712 87.0216 22.888 87.6776 22.888ZM102.209 25.288C99.9526 25.288 98.2326 24.776 97.0486 23.752C95.8646 22.712 95.2726 21.184 95.2726 19.168V14.032C95.2726 12.016 95.8646 10.496 97.0486 9.472C98.2326 8.432 99.9526 7.912 102.209 7.912C103.777 7.912 105.057 8.176 106.049 8.704C107.057 9.216 107.857 9.992 108.449 11.032L106.025 12.712C105.529 11.944 105.009 11.392 104.465 11.056C103.937 10.72 103.185 10.552 102.209 10.552C100.977 10.552 100.073 10.848 99.4966 11.44C98.9366 12.016 98.6566 12.88 98.6566 14.032V19.168C98.6566 20.32 98.9366 21.192 99.4966 21.784C100.073 22.36 100.977 22.648 102.209 22.648C103.265 22.648 104.081 22.472 104.657 22.12C105.249 21.752 105.777 21.168 106.241 20.368L108.641 22.144C108.129 22.88 107.601 23.472 107.057 23.92C106.513 24.368 105.849 24.712 105.065 24.952C104.297 25.176 103.345 25.288 102.209 25.288ZM120.418 21.52C120.418 21.952 120.498 22.304 120.658 22.576C120.834 22.848 121.138 23.144 121.57 23.464L119.482 25.288C118.57 24.824 117.946 24.24 117.61 23.536C117.258 24.032 116.778 24.448 116.17 24.784C115.562 25.12 114.81 25.288 113.914 25.288C112.778 25.288 111.874 25 111.202 24.424C110.53 23.832 110.194 23 110.194 21.928C110.194 20.968 110.442 20.232 110.938 19.72C111.45 19.192 112.034 18.832 112.69 18.64C113.346 18.448 114.074 18.312 114.874 18.232L116.026 18.112C116.49 18.064 116.81 17.984 116.986 17.872C117.178 17.76 117.282 17.576 117.298 17.32C117.266 16.84 117.106 16.432 116.818 16.096C116.546 15.76 116.018 15.592 115.234 15.592C114.722 15.592 114.274 15.688 113.89 15.88C113.506 16.072 113.114 16.384 112.714 16.816L110.578 15.328C111.042 14.72 111.626 14.256 112.33 13.936C113.034 13.6 114.002 13.432 115.234 13.432C118.69 13.432 120.418 14.832 120.418 17.632V21.52ZM114.706 23.056C115.538 23.056 116.178 22.856 116.626 22.456C117.074 22.04 117.298 21.536 117.298 20.944V19.936C117.042 20.032 116.554 20.12 115.834 20.2L115.114 20.272C114.57 20.32 114.114 20.448 113.746 20.656C113.378 20.848 113.194 21.216 113.194 21.76C113.194 22.176 113.33 22.496 113.602 22.72C113.874 22.944 114.242 23.056 114.706 23.056ZM129.646 13.432C130.478 13.432 131.182 13.656 131.758 14.104L130.99 16.696C130.654 16.472 130.334 16.312 130.03 16.216C129.726 16.12 129.35 16.072 128.902 16.072C127.846 16.072 127.086 16.776 126.622 18.184V25H123.502V17.2C123.502 16.768 123.414 16.416 123.238 16.144C123.078 15.872 122.782 15.576 122.35 15.256L124.438 13.432C124.982 13.72 125.414 14.024 125.734 14.344C126.054 14.664 126.286 15.048 126.43 15.496C126.75 14.872 127.174 14.376 127.702 14.008C128.23 13.624 128.878 13.432 129.646 13.432Z" fill="white"/>
<path d="M45.0861 32.4621H46.2541C46.8407 32.4621 47.3101 32.5421 47.6621 32.7021C48.0141 32.8621 48.3181 33.1181 48.5741 33.4701C48.8301 33.8114 49.1287 34.3288 49.4701 35.0221L50.3981 36.8941L51.3261 35.0221C51.6674 34.3288 51.9661 33.8114 52.2221 33.4701C52.4781 33.1181 52.7821 32.8621 53.1341 32.7021C53.4861 32.5421 53.9554 32.4621 54.5421 32.4621H55.7101V43.6621H53.6621V34.8141C53.5341 34.8141 53.4274 34.8728 53.3421 34.9901C53.2567 35.1074 53.1287 35.3154 52.9581 35.6141L50.3981 40.3661L47.8381 35.6141C47.6674 35.3154 47.5394 35.1074 47.4541 34.9901C47.3687 34.8728 47.2621 34.8088 47.1341 34.7981V43.6621H45.0861V32.4621ZM61.2458 43.8541C60.1365 43.8541 59.2832 43.5981 58.6858 43.0861C58.0885 42.5741 57.7898 41.8434 57.7898 40.8941V38.9101C57.7898 37.9608 58.0885 37.2301 58.6858 36.7181C59.2832 36.2061 60.1365 35.9501 61.2458 35.9501C62.3552 35.9501 63.2085 36.2061 63.8058 36.7181C64.4032 37.2301 64.7018 37.9608 64.7018 38.9101V40.8941C64.7018 41.8434 64.4032 42.5741 63.8058 43.0861C63.2085 43.5981 62.3552 43.8541 61.2458 43.8541ZM61.2458 42.2541C61.6832 42.2541 62.0192 42.1368 62.2538 41.9021C62.4992 41.6674 62.6218 41.3314 62.6218 40.8941V38.9101C62.6218 38.4728 62.4992 38.1368 62.2538 37.9021C62.0192 37.6674 61.6832 37.5501 61.2458 37.5501C60.8085 37.5501 60.4672 37.6674 60.2218 37.9021C59.9872 38.1368 59.8698 38.4728 59.8698 38.9101V40.8941C59.8698 41.3314 59.9872 41.6674 60.2218 41.9021C60.4672 42.1368 60.8085 42.2541 61.2458 42.2541ZM68.5972 37.7421V40.8461C68.5972 41.2941 68.6665 41.6088 68.8052 41.7901C68.9439 41.9714 69.1785 42.0621 69.5092 42.0621H70.7732V43.6621H69.5092C68.7625 43.6621 68.1705 43.5714 67.7332 43.3901C67.3065 43.2088 66.9972 42.9154 66.8052 42.5101C66.6132 42.1048 66.5172 41.5501 66.5172 40.8461V34.9741C66.5172 34.6861 66.4585 34.4514 66.3412 34.2701C66.2345 34.0888 66.0372 33.8914 65.7492 33.6781L67.1412 32.4621C67.6852 32.7394 68.0639 33.0594 68.2772 33.4221C68.4905 33.7741 68.5972 34.2701 68.5972 34.9101V36.1421H70.7732V37.7421H68.5972ZM73.2931 35.1341C72.9624 35.1341 72.6797 35.0168 72.4451 34.7821C72.2104 34.5474 72.0931 34.2648 72.0931 33.9341C72.0931 33.6141 72.2104 33.3368 72.4451 33.1021C72.6797 32.8568 72.9624 32.7341 73.2931 32.7341C73.6131 32.7341 73.8904 32.8568 74.1251 33.1021C74.3704 33.3368 74.4931 33.6141 74.4931 33.9341C74.4931 34.2648 74.3704 34.5474 74.1251 34.7821C73.8904 35.0168 73.6131 35.1341 73.2931 35.1341ZM73.7091 43.8541C73.1651 43.5768 72.7864 43.2621 72.5731 42.9101C72.3597 42.5474 72.2531 42.0461 72.2531 41.4061V36.1421H74.3331V41.3421C74.3331 41.6301 74.3864 41.8648 74.4931 42.0461C74.6104 42.2274 74.8131 42.4248 75.1011 42.6381L73.7091 43.8541ZM79.6494 43.8541C79.0948 43.8541 78.6521 43.7261 78.3214 43.4701C77.9908 43.2034 77.7348 42.7714 77.5534 42.1741L75.6654 36.1421H77.6814L79.4414 41.9821C79.4734 42.0781 79.5001 42.1474 79.5214 42.1901C79.5534 42.2328 79.5961 42.2541 79.6494 42.2541C79.7241 42.2541 79.7881 42.1634 79.8414 41.9821L81.5694 36.1421H83.5854L81.7294 42.1741C81.5481 42.7714 81.2974 43.2034 80.9774 43.4701C80.6574 43.7261 80.2148 43.8541 79.6494 43.8541ZM87.6993 42.2861C88.094 42.2861 88.414 42.2381 88.6593 42.1421C88.9047 42.0354 89.1713 41.8541 89.4593 41.5981L90.6913 42.7181C90.0727 43.4754 89.0753 43.8541 87.6993 43.8541C86.4727 43.8541 85.5873 43.6248 85.0433 43.1661C84.4993 42.6968 84.2273 41.9394 84.2273 40.8941V38.6061C84.2273 37.7848 84.5207 37.1394 85.1073 36.6701C85.7047 36.1901 86.5153 35.9501 87.5393 35.9501C88.5953 35.9501 89.422 36.2061 90.0193 36.7181C90.6167 37.2194 90.9153 37.9554 90.9153 38.9261C90.9153 39.3954 90.8727 39.7581 90.7873 40.0141C90.7127 40.2701 90.558 40.4621 90.3233 40.5901C90.0887 40.7074 89.7473 40.7661 89.2993 40.7661H86.2913V40.9101C86.2913 41.8274 86.7607 42.2861 87.6993 42.2861ZM87.5393 37.5181C87.1447 37.5181 86.8353 37.6354 86.6113 37.8701C86.398 38.0941 86.2913 38.3928 86.2913 38.7661V39.3421H88.1153C88.3927 39.3421 88.5847 39.2994 88.6913 39.2141C88.798 39.1288 88.8513 38.9794 88.8513 38.7661C88.8513 38.3608 88.7393 38.0514 88.5153 37.8381C88.2913 37.6248 87.966 37.5181 87.5393 37.5181Z" fill="white"/>
</svg>
