<svg width="152" height="56" viewBox="0 0 152 56" fill="none" xmlns="http://www.w3.org/2000/svg">
<path d="M13.1054 17.7253C3.99194 30.9427 15.4123 48.8086 31.3672 45.8827C45.0841 43.3504 50.7543 26.8381 42.243 16.6216C35.186 8.14909 20.7244 6.6712 13.1054 17.7253V17.7253ZM27.1687 55.5186C25.7654 55.5186 26.0278 54.3109 26.0278 50.8863C21.6297 50.3213 18.2179 49.3957 13.3379 45.6367C11.4436 47.5315 10.5878 48.4914 10.1651 48.4914C9.64622 48.4914 8.39651 47.2413 7.986 46.8304C7.00307 45.8474 8.01228 45.1882 10.4486 42.7513C7.75515 39.2527 5.98628 36.1801 5.19436 30.0613C2.53374 30.0613 1.19958 30.15 0.923137 29.8292C0.567018 29.4161 0.567017 27.6894 0.567017 27.1219C0.567017 25.7017 1.92587 25.9811 5.19436 25.9811C5.75751 21.6344 6.6632 18.208 10.4483 13.2911C8.61111 11.4525 7.59554 10.5486 7.59444 10.1202C7.59237 9.60191 8.8433 8.35233 9.25454 7.94158C10.2482 6.94838 10.928 7.99938 13.339 10.4031C17.7875 6.97355 21.0315 5.79643 26.0278 5.14981C26.0278 2.5509 25.9468 1.19083 26.2484 0.886532C26.6133 0.518559 28.381 0.518554 28.9618 0.518554C30.3787 0.518554 30.1079 1.78245 30.1079 5.14981C36.262 5.94638 39.3334 7.7359 42.794 10.4041C44.6235 8.57548 45.5365 7.54732 45.9668 7.54732C46.486 7.54732 47.7341 8.79607 48.1445 9.20645C49.1412 10.2038 48.0872 10.885 45.6837 13.2918C48.396 16.8106 50.1467 19.8806 50.9376 25.9811C54.4951 25.9811 55.5651 25.7832 55.5651 27.1219C55.5651 27.6908 55.5651 29.4214 55.211 29.8275C54.9329 30.1474 53.5481 30.0613 50.9373 30.0613C50.3566 34.5496 49.39 37.9397 45.6832 42.7517C47.5878 44.6542 48.5373 45.4961 48.5387 45.9181C48.5409 46.4376 47.2893 47.6863 46.8781 48.0966C45.8867 49.0926 45.2115 48.0509 42.7938 45.6373C39.2843 48.3401 36.2125 50.1008 30.1079 50.8866C30.1079 53.5186 30.1875 54.8482 29.8873 55.1505C29.5228 55.5186 27.751 55.5186 27.1687 55.5186" fill="white"/>
<path d="M33.3306 30.1289L27.9673 15.4244L22.6234 30.1289H33.3306Z" fill="white"/>
<path d="M40.0179 37.8457C47.5152 28.7385 42.4106 14.8273 30.7549 12.7839L40.0179 37.8457" fill="white"/>
<path d="M34.4389 33.1971H21.4954L18.8752 40.4658C24.1816 44.3907 31.5568 44.5712 37.0993 40.578L34.4389 33.1971" fill="white"/>
<path d="M25.398 12.7804C13.7017 14.8144 8.63131 28.7588 16.1165 37.8477L25.398 12.7804" fill="white"/>
<path d="M63.1001 29.4233H67.8186V25.5545H65.7098C64.7538 25.5545 63.9953 26.1309 63.7526 27.0413L63.1001 29.4233ZM61.0671 26.3433C61.6892 23.9918 63.8283 23.4607 65.9828 23.4607H69.973C70.3371 23.4607 70.6101 23.7794 70.6101 24.1434V33.3983C70.6101 33.7776 70.2916 34.0811 69.9123 34.0811H68.5165C68.1221 34.0811 67.8186 33.7776 67.8186 33.3831V31.517H62.5539L62.0534 33.3831C61.9472 33.7776 61.5678 34.0811 61.1735 34.0811H59.717C59.3223 34.0811 59.0948 33.7776 59.201 33.3983L61.0671 26.3433" fill="white"/>
<path d="M75.1466 30.6671C75.1466 31.9263 75.7231 32.4422 76.5575 32.4422C77.3009 32.4422 77.9987 31.9263 78.545 31.3802V26.4189C78.545 26.1611 78.7423 25.9638 79.0002 25.9638H80.6539C80.9117 25.9638 81.1091 26.1611 81.1091 26.4189V33.6255C81.1091 33.8835 80.9117 34.0808 80.6539 34.0808H79.0002C78.7423 34.0808 78.545 33.8835 78.545 33.6255V33.1553C77.8471 33.7469 77.0885 34.2324 75.9507 34.2324C73.9783 34.2324 72.5825 33.1857 72.5825 30.6671V26.4189C72.5825 26.1611 72.7796 25.9638 73.0378 25.9638H74.6914C74.9492 25.9638 75.1466 26.1611 75.1466 26.4189V30.6671" fill="white"/>
<path d="M86.1156 34.2324C83.9916 34.2324 82.9294 33.1704 82.9294 30.8946V23.9156C82.9294 23.6577 83.1267 23.4604 83.3847 23.4604H85.0384C85.2963 23.4604 85.4935 23.6577 85.4935 23.9156V26.3886H87.5568C87.8149 26.3886 88.012 26.5859 88.012 26.8437V27.7238C88.012 27.9818 87.8149 28.1789 87.5568 28.1789H85.4935V30.8946C85.4935 31.9263 86.0245 32.4726 86.7982 32.4726C87.1927 32.4726 87.481 32.3816 87.8149 32.3816H88.0879C88.3458 32.3816 88.5431 32.5788 88.5431 32.8367V33.6255C88.5431 33.8531 88.3458 34.0353 88.0879 34.0808C87.6327 34.1718 86.7982 34.2324 86.1156 34.2324" fill="white"/>
<path d="M95.5371 30.0146C95.5371 28.2245 94.915 27.4962 93.6255 27.4962C92.3359 27.4962 91.7139 28.2245 91.7139 30.0146C91.7139 31.805 92.3359 32.5484 93.6255 32.5484C94.915 32.5484 95.5371 31.805 95.5371 30.0146V30.0146ZM98.1012 30.0146C98.1012 32.8064 96.4929 34.2324 93.6255 34.2324C90.7581 34.2324 89.1498 32.8064 89.1498 30.0146C89.1498 27.2232 90.7581 25.8122 93.6255 25.8122C96.4929 25.8122 98.1012 27.2232 98.1012 30.0146Z" fill="white"/>
<path d="M104.898 29.3777C104.898 28.1186 104.428 27.6027 103.608 27.6027C102.971 27.6027 102.501 28.0124 102.031 28.6646V33.6258C102.031 33.8838 101.833 34.0811 101.575 34.0811H99.9217C99.6638 34.0811 99.4664 33.8838 99.4664 33.6258V26.4192C99.4664 26.1614 99.6638 25.9641 99.9217 25.9641H101.575C101.833 25.9641 102.031 26.1614 102.031 26.4192V26.8896C102.622 26.313 103.26 25.8125 104.321 25.8125C105.535 25.8125 106.355 26.2979 106.931 27.2387C107.781 26.3585 108.706 25.8125 109.753 25.8125C111.604 25.8125 112.894 26.8592 112.894 29.3777V33.6258C112.894 33.8838 112.696 34.0811 112.438 34.0811H110.785C110.527 34.0811 110.33 33.8838 110.33 33.6258V29.3777C110.33 28.1186 109.859 27.6027 109.04 27.6027C108.539 27.6027 107.948 28.0124 107.417 28.7406C107.447 28.953 107.462 29.1654 107.462 29.3777V33.6258C107.462 33.8838 107.265 34.0811 107.007 34.0811H105.353C105.095 34.0811 104.898 33.8838 104.898 33.6258V29.3777" fill="white"/>
<path d="M120.646 30.0146C120.646 28.2245 120.024 27.4962 118.734 27.4962C117.445 27.4962 116.823 28.2245 116.823 30.0146C116.823 31.805 117.445 32.5484 118.734 32.5484C120.024 32.5484 120.646 31.805 120.646 30.0146V30.0146ZM123.21 30.0146C123.21 32.8064 121.602 34.2324 118.734 34.2324C115.867 34.2324 114.259 32.8064 114.259 30.0146C114.259 27.2232 115.867 25.8122 118.734 25.8122C121.602 25.8122 123.21 27.2232 123.21 30.0146Z" fill="white"/>
<path d="M127.139 32.2752C127.488 32.3663 128.08 32.4422 128.702 32.4422C130.113 32.4422 130.614 31.6988 130.614 30.0299C130.614 28.3458 130.113 27.6024 128.748 27.6024C128.368 27.6024 127.761 27.7086 127.139 27.9057V32.2752ZM124.575 23.9156C124.575 23.6577 124.773 23.4604 125.03 23.4604H126.684C126.942 23.4604 127.139 23.6577 127.139 23.9156V26.1914C127.761 25.9941 128.368 25.8122 129.279 25.8122C131.645 25.8122 133.254 27.2384 133.254 30.0299C133.254 32.8064 131.661 34.2324 128.55 34.2324C127.109 34.2324 125.364 33.8531 124.575 33.398V23.9156" fill="white"/>
<path d="M134.619 24.159C134.619 23.6281 134.937 23.3094 135.468 23.3094H136.394C136.925 23.3094 137.244 23.6281 137.244 24.159V24.417C137.244 24.948 136.925 25.2666 136.394 25.2666H135.468C134.937 25.2666 134.619 24.948 134.619 24.417V24.159Z" fill="white"/>
<path d="M135.105 34.0811C134.846 34.0811 134.649 33.8838 134.649 33.6258V26.6013C134.649 26.3433 134.846 26.1462 135.105 26.1462H136.758C137.016 26.1462 137.213 26.3433 137.213 26.6013V33.6258C137.213 33.8838 137.016 34.0811 136.758 34.0811H135.105Z" fill="white"/>
<path d="M139.519 34.0811C139.261 34.0811 139.064 33.8838 139.064 33.6258V23.9159C139.064 23.658 139.261 23.4607 139.519 23.4607H141.173C141.431 23.4607 141.628 23.658 141.628 23.9159V33.6258C141.628 33.8838 141.431 34.0811 141.173 34.0811H139.519Z" fill="white"/>
<path d="M145.588 29.2409H149.032C148.986 28.1031 148.44 27.4962 147.317 27.4962C146.225 27.4962 145.649 28.1031 145.588 29.2409V29.2409ZM145.603 30.8036C145.709 32.0174 146.255 32.5484 147.5 32.5484C148.137 32.5484 148.698 32.3663 148.956 32.0477C149.153 31.805 149.426 31.6533 149.806 31.6533H150.913C151.171 31.6533 151.368 31.8506 151.368 32.1084C151.368 33.6863 149.745 34.2324 147.317 34.2324C144.617 34.2324 142.994 32.7759 142.994 30.0299C142.994 27.299 144.632 25.8122 147.317 25.8122C150.018 25.8122 151.641 27.2535 151.641 29.9237V30.3485C151.641 30.6063 151.444 30.8036 151.186 30.8036H145.603" fill="white"/>
</svg>
