<svg width="228" height="55" viewBox="0 0 228 55" fill="none" xmlns="http://www.w3.org/2000/svg">
<path d="M53.6689 52.4479C52.7155 53.3913 51.178 53.3828 50.2353 52.4294C49.2918 51.4759 49.3003 49.9376 50.2537 48.995C51.2072 48.0523 52.7447 48.0607 53.6882 49.0142C54.6309 49.9676 54.6224 51.5044 53.6689 52.4479ZM55.4966 48.3347L17.3832 11.4688C16.272 10.3453 15.611 8.86084 15.4863 7.28561C14.8684 -0.482033 3.51706 -0.590527 5.07151 0.485279L10.3082 4.10976C12.1958 5.41642 7.46476 12.2514 5.5771 10.9455L0.33967 7.32024C0.184224 7.21251 -0.0258579 7.34332 0.00261477 7.53032C0.341978 9.76427 2.64827 12.6038 4.60595 13.8489C8.09808 16.0706 10.4036 13.6104 13.7511 16.994L49.6227 54.1439C52.6147 57.1682 58.5755 51.4482 55.4966 48.3347Z" fill="white"/>
<path d="M4.04201 49.0142C4.98545 48.0607 6.52298 48.0523 7.47643 48.995C8.42987 49.9376 8.43834 51.4759 7.49489 52.4294C6.55222 53.3828 5.0147 53.3913 4.06125 52.4479C3.1078 51.5044 3.09933 49.9676 4.04201 49.0142ZM8.10744 54.1439L43.9791 16.994C47.3266 13.6104 49.6321 16.0706 53.1242 13.8489C55.0819 12.6038 57.3882 9.76427 57.7276 7.53032C57.7568 7.34332 57.5459 7.21251 57.3905 7.32024L52.1531 10.9455C50.2654 12.2514 45.5343 5.41642 47.422 4.10976L52.6587 0.485279C54.2139 -0.590527 42.8618 -0.482033 42.2446 7.28561C42.1192 8.86084 41.4581 10.3453 40.3469 11.4688L2.23437 48.3347C-0.84529 51.4482 5.1155 57.1682 8.10744 54.1439Z" fill="white"/>
<path d="M28.1877 6.19005C15.3004 6.19005 4.81549 16.675 4.81549 29.5627C4.81549 42.4505 15.3004 52.9349 28.1877 52.9349C41.0759 52.9349 51.5604 42.4505 51.5604 29.5627C51.5604 16.675 41.0759 6.19005 28.1877 6.19005ZM28.1877 53.625C14.9197 53.625 4.125 42.8308 4.125 29.5627C4.125 16.2947 14.9197 5.5 28.1877 5.5C41.4558 5.5 52.2504 16.2947 52.2504 29.5627C52.2504 42.8308 41.4558 53.625 28.1877 53.625Z" fill="white"/>
<path d="M75.369 34.1094C71.9164 34.1094 71.4323 30.0177 71.4323 27.8253C71.4323 26.4113 71.7041 21.8929 75.214 21.8929C77.6961 21.8929 78.3745 23.9292 78.8204 25.3241H79.5572V21.8536C78.3936 21.155 76.3585 21 75.3881 21C72.6532 21 70.8124 21.757 69.6679 23.0363C68.4852 24.3548 68 26.1968 68 28.1364C68 32.2865 70.1138 35 75.0972 35C76.455 35 78.4711 34.7675 79.6347 34.0689L79.8672 30.2884H79.1304C78.3936 32.4213 77.5591 34.1094 75.369 34.1094" fill="white"/>
<path d="M88.1481 29.0061L89.7183 23.9834H89.7755L91.2884 29.0061H88.1481ZM95.7686 33.0382L91.9477 21.2878H89.5049L87.2552 27.8223C86.5577 29.8204 85.9175 31.7791 85.4526 32.9618C85.1414 33.7761 84.928 33.9109 83.8813 33.9693V34.7061H88.4188V33.9693L87.2552 33.8727C86.8295 33.8345 86.8093 33.6009 86.9059 33.1752C87.1395 32.1273 87.4888 31.0805 87.837 29.9361H91.5984L92.6081 33.155C92.7429 33.5627 92.6845 33.8143 92.2779 33.8536L91.1536 33.9693V34.7061H97.2804V33.9693C96.2718 33.9502 96.0202 33.8345 95.7686 33.0382" fill="white"/>
<path d="M107.034 27.6493H106.065V22.9366C106.065 22.4132 106.24 22.1796 107.307 22.1796C108.624 22.1796 109.614 22.8973 109.614 24.8752C109.614 26.4846 108.993 27.6493 107.034 27.6493V27.6493ZM112.232 31.3321C111.96 29.7811 111.592 28.5018 109.595 27.9975C111.514 27.7066 112.871 26.4465 112.871 24.7584C112.871 23.77 112.6 22.9366 111.901 22.2964C111.165 21.6562 110.06 21.2878 108.16 21.2878H101.432V22.0246C102.807 22.083 102.962 22.1796 102.962 23.1691V32.8248C102.962 33.8143 102.807 33.9109 101.432 33.9693V34.7061H107.596V33.9693C106.221 33.9109 106.065 33.8143 106.065 32.8248V28.54H106.957C107.927 28.54 108.47 29.0061 108.702 30.0529C108.858 30.7313 109.013 31.7791 109.323 32.7664C109.788 34.2029 110.622 34.7061 112.657 34.7061H114.093V33.9693C113.745 33.9502 113.414 33.7761 113.181 33.5436C112.697 33.0584 112.406 32.3407 112.232 31.3321" fill="white"/>
<path d="M132.554 26.5652C131.275 26.0429 129.665 25.3432 129.665 23.8707C129.665 22.6679 130.518 21.8929 131.681 21.8929C132.922 21.8929 134.086 22.7645 134.63 25.0332H135.327V21.8536C134.318 21.2336 132.884 21 131.701 21C128.443 21 126.873 22.6881 126.873 24.9748C126.873 27.3806 129.025 28.4262 130.731 29.145C132.496 29.8807 133.31 30.7545 133.31 31.9956C133.292 33.4298 132.361 34.1094 131.099 34.1094C129.627 34.1094 128.152 32.7515 127.416 30.3277H126.698L126.99 33.7982C127.978 34.7091 129.898 35 131.178 35C135.056 34.9618 136.219 32.8683 136.219 30.8511C136.219 28.2915 134.318 27.3019 132.554 26.5652" fill="white"/>
<path d="M148.3 33.8143C146.516 33.8143 145.915 33.6402 145.915 32.3991V28.1716H147.757C148.979 28.1716 149.23 28.5018 149.541 29.917H150.278V25.4188H149.541C149.23 26.8339 148.979 27.1641 147.757 27.1641H145.915V22.8782C145.915 22.3167 146.05 22.1796 146.593 22.1796H148.048C150.045 22.1796 150.394 22.9557 150.996 24.8752H151.733V21.2878H141.281V22.0246C142.658 22.083 142.813 22.1796 142.813 23.1691V32.8248C142.813 33.8143 142.658 33.9109 141.281 33.9693V34.7061H152.12L152.353 30.6728H151.616C150.917 32.7484 150.588 33.8143 148.3 33.8143" fill="white"/>
<path d="M162.96 27.6493H161.989V22.9366C161.989 22.4132 162.165 22.1796 163.23 22.1796C164.549 22.1796 165.537 22.8973 165.537 24.8752C165.537 26.4846 164.917 27.6493 162.96 27.6493V27.6493ZM168.155 31.3321C167.885 29.7811 167.516 28.5018 165.519 27.9975C167.439 27.7066 168.797 26.4465 168.797 24.7584C168.797 23.77 168.524 22.9366 167.826 22.2964C167.088 21.6562 165.983 21.2878 164.084 21.2878H157.354V22.0246C158.731 22.083 158.887 22.1796 158.887 23.1691V32.8248C158.887 33.8143 158.731 33.9109 157.354 33.9693V34.7061H163.522V33.9693C162.145 33.9109 161.989 33.8143 161.989 32.8248V28.54H162.881C163.851 28.54 164.395 29.0061 164.628 30.0529C164.781 30.7313 164.935 31.7791 165.249 32.7664C165.713 34.2029 166.546 34.7061 168.582 34.7061H170.016V33.9693C169.669 33.9502 169.338 33.7761 169.107 33.5436C168.621 33.0584 168.329 32.3407 168.155 31.3321" fill="white"/>
<path d="M182.023 22.0246L183.108 22.1212C183.495 22.1605 183.535 22.3548 183.439 22.7614C183.283 23.4027 182.856 25.0111 182.274 26.8148C181.886 27.9975 181.013 30.829 180.665 31.8173H180.567L177.658 22.8198C177.542 22.4132 177.542 22.1605 177.99 22.1212L178.921 22.0246V21.2878H173.044V22.0246C174.034 22.0639 174.246 22.1796 174.519 23.0141L178.436 34.7061H180.877L183.184 27.9391C183.903 25.8062 184.581 23.9261 184.873 23.1691C185.261 22.238 185.436 22.1032 186.52 22.0246V21.2878H182.023V22.0246" fill="white"/>
<path d="M190.379 22.0246C191.757 22.083 191.911 22.1796 191.911 23.1691V32.8248C191.911 33.8143 191.757 33.9109 190.379 33.9693V34.7061H196.546V33.9693C195.168 33.9109 195.014 33.8143 195.014 32.8248V23.1691C195.014 22.1796 195.168 22.083 196.546 22.0246V21.2878H190.379V22.0246Z" fill="white"/>
<path d="M207.732 26.5652C206.454 26.0429 204.844 25.3432 204.844 23.8707C204.844 22.6679 205.698 21.8929 206.859 21.8929C208.1 21.8929 209.265 22.7645 209.808 25.0332H210.506V21.8536C209.497 21.2336 208.063 21 206.88 21C203.622 21 202.052 22.6881 202.052 24.9748C202.052 27.3806 204.205 28.4262 205.91 29.145C207.676 29.8807 208.49 30.7545 208.49 31.9956C208.47 33.4298 207.539 34.1094 206.278 34.1094C204.805 34.1094 203.332 32.7515 202.596 30.3277H201.877L202.169 33.7982C203.157 34.7091 205.078 35 206.356 35C210.235 34.9618 211.399 32.8683 211.399 30.8511C211.399 28.2915 209.497 27.3019 207.732 26.5652" fill="white"/>
<path d="M226.795 30.6728C226.097 32.7484 225.766 33.8143 223.478 33.8143C221.696 33.8143 221.094 33.6402 221.094 32.3991V28.1716H222.937C224.157 28.1716 224.408 28.5018 224.718 29.917H225.456V25.4188H224.718C224.408 26.8339 224.157 27.1641 222.937 27.1641H221.094V22.8782C221.094 22.3167 221.229 22.1796 221.772 22.1796H223.225C225.225 22.1796 225.573 22.9557 226.175 24.8752H226.912V21.2878H216.458V22.0246C217.838 22.083 217.992 22.1796 217.992 23.1691V32.8248C217.992 33.8143 217.838 33.9109 216.458 33.9693V34.7061H227.299L227.532 30.6728H226.795Z" fill="white"/>
</svg>
