<svg width="163" height="54" viewBox="0 0 163 54" fill="none" xmlns="http://www.w3.org/2000/svg">
<path d="M14.097 38.481C10.1503 38.481 7.067 37.4203 4.847 35.299C2.627 33.1777 1.517 30.1807 1.517 26.308C1.517 23.6687 2.035 21.3377 3.071 19.315C4.13167 17.2923 5.624 15.7383 7.548 14.653C9.472 13.543 11.692 12.988 14.208 12.988C16.2553 12.988 18.2287 13.358 20.128 14.098L19.129 18.871C17.4517 18.1063 15.8237 17.724 14.245 17.724C12.0003 17.724 10.2243 18.464 8.917 19.944C7.60967 21.3993 6.956 23.348 6.956 25.79C6.956 28.2813 7.64667 30.2177 9.028 31.599C10.4093 32.9803 12.321 33.671 14.763 33.671C16.3663 33.671 17.9203 33.412 19.425 32.894L20.239 37.445C18.4383 38.1357 16.391 38.481 14.097 38.481ZM29.4532 38.555C27.4798 38.555 25.9135 37.7163 24.7542 36.039C23.5948 34.3617 23.0152 32.08 23.0152 29.194C23.0152 25.6913 23.9032 23.0273 25.6792 21.202C27.4552 19.352 30.0082 18.427 33.3382 18.427C35.2128 18.427 37.4082 18.723 39.9242 19.315V38H34.9662L35.0772 34.966H34.9292C34.2878 36.1253 33.4985 37.0133 32.5612 37.63C31.6485 38.2467 30.6125 38.555 29.4532 38.555ZM30.5632 34.004C31.3278 34.004 32.0802 33.597 32.8202 32.783C33.5602 31.969 34.2508 30.8837 34.8922 29.527V23.311C34.1028 23.089 33.3135 22.978 32.5242 22.978C31.0442 22.978 29.9218 23.4837 29.1572 24.495C28.4172 25.5063 28.0472 26.9987 28.0472 28.972C28.0472 30.526 28.2692 31.7593 28.7132 32.672C29.1572 33.56 29.7738 34.004 30.5632 34.004ZM45.0082 18.945H50.2252V22.053H50.5212C51.2365 20.795 51.9395 19.87 52.6302 19.278C53.3455 18.686 54.2335 18.39 55.2942 18.39C55.7382 18.39 56.1082 18.4393 56.4042 18.538L55.8492 24.162C55.2079 23.9893 54.6899 23.903 54.2952 23.903C53.7279 23.903 53.2222 24.014 52.7782 24.236C52.3589 24.458 51.9765 24.754 51.6312 25.124C51.3105 25.494 50.8419 26.0613 50.2252 26.826V38H45.0082V18.945ZM64.8272 38.555C63.6185 38.555 62.4468 38.4317 61.3122 38.185C60.2022 37.9383 59.2525 37.6053 58.4632 37.186L58.9442 32.746C59.7828 33.264 60.7078 33.6833 61.7192 34.004C62.7305 34.3247 63.6802 34.485 64.5682 34.485C65.4068 34.485 66.1098 34.337 66.6772 34.041C67.2445 33.7203 67.5282 33.264 67.5282 32.672C67.5282 32.2033 67.3308 31.8457 66.9362 31.599C66.5415 31.3277 65.7892 30.9947 64.6792 30.6L63.6802 30.23C62.6195 29.8353 61.7562 29.4653 61.0902 29.12C60.4242 28.75 59.8198 28.195 59.2772 27.455C58.7345 26.715 58.4632 25.7407 58.4632 24.532C58.4632 22.608 59.1785 21.1157 60.6092 20.055C62.0645 18.9697 63.9515 18.427 66.2702 18.427C68.0955 18.427 70.0195 18.7847 72.0422 19.5L71.3392 23.903C70.6238 23.4837 69.8098 23.1507 68.8972 22.904C68.0092 22.6327 67.1705 22.497 66.3812 22.497C65.5672 22.497 64.9135 22.6327 64.4202 22.904C63.9515 23.1753 63.7172 23.57 63.7172 24.088C63.7172 24.5813 63.9145 24.9513 64.3092 25.198C64.7038 25.4447 65.3698 25.7283 66.3072 26.049C67.0472 26.3203 67.4788 26.4807 67.6022 26.53C68.6382 26.9493 69.5015 27.3563 70.1922 27.751C70.8828 28.1457 71.4872 28.7377 72.0052 29.527C72.5232 30.2917 72.7822 31.2783 72.7822 32.487C72.7822 34.5097 72.0545 36.0267 70.5992 37.038C69.1438 38.0493 67.2198 38.555 64.8272 38.555ZM89.6522 20.61L88.0982 38H83.3252L85.6562 13.358H92.3162L98.6062 31.044L104.711 13.358H111.371L113.628 38H108.818L107.116 20.684L100.604 38.259L96.2012 38.666L89.6522 20.61ZM129.099 38.481C126.682 38.481 124.548 37.9507 122.698 36.89C120.848 35.8293 119.405 34.337 118.369 32.413C117.358 30.489 116.852 28.2813 116.852 25.79C116.852 23.274 117.358 21.054 118.369 19.13C119.38 17.206 120.811 15.7137 122.661 14.653C124.511 13.5923 126.657 13.062 129.099 13.062C131.516 13.062 133.65 13.5923 135.5 14.653C137.35 15.689 138.781 17.1567 139.792 19.056C140.803 20.9553 141.309 23.1507 141.309 25.642C141.309 28.1827 140.803 30.4273 139.792 32.376C138.781 34.3 137.35 35.8047 135.5 36.89C133.65 37.9507 131.516 38.481 129.099 38.481ZM129.099 33.782C131.122 33.782 132.737 33.0543 133.946 31.599C135.179 30.1437 135.796 28.2073 135.796 25.79C135.796 24.2113 135.512 22.8177 134.945 21.609C134.402 20.3757 133.613 19.4383 132.577 18.797C131.566 18.131 130.406 17.798 129.099 17.798C127.792 17.798 126.62 18.131 125.584 18.797C124.573 19.4383 123.783 20.3757 123.216 21.609C122.673 22.8177 122.402 24.2113 122.402 25.79C122.402 27.3687 122.673 28.7623 123.216 29.971C123.783 31.1797 124.573 32.117 125.584 32.783C126.595 33.449 127.767 33.782 129.099 33.782ZM149.701 18.02H142.967V13.358H161.763V18.02H155.103V38H149.701V18.02Z" fill="white"/>
<path d="M5 45H163L159.5 51H0L5 45Z" fill="white"/>
</svg>
