<svg width="60" height="60" viewBox="0 0 60 60" fill="none" xmlns="http://www.w3.org/2000/svg">
<g clip-path="url(#clip0_8_239)">
<path d="M55 25.3459C55 24.078 54.0129 23.0507 52.7958 23.0507H49.2616C48.2338 20.2296 46.5199 16.5677 45.3253 14.3484C44.4401 12.7034 43.1516 11.8613 41.0176 11.5337C38.4414 11.1401 33.3685 11 29.4998 11C25.6311 11 20.5581 11.1401 17.982 11.5338C15.8479 11.8613 14.5594 12.7034 13.6742 14.3486C12.4797 16.5679 10.7657 20.2296 9.73796 23.0508H6.20422C4.98711 23.0508 4 24.078 4 25.3459C4 26.6128 4.98711 27.6406 6.20422 27.6406H6.65078C6.01003 29.9811 4.45854 37.2818 6.14503 39.6702V46.1173C6.14503 47.71 7.38327 49 8.91499 49H11.4577C12.9871 49 14.2276 47.71 14.2276 46.1173C14.2276 46.0267 14.2276 45.7047 14.2276 44.7074C21.183 44.7074 37.7262 44.7074 44.7726 44.7074C44.7726 45.8963 44.7726 46.0916 44.7726 46.1173C44.7726 47.71 46.0104 49 47.5426 49H50.0852C51.6147 49 52.8552 47.71 52.8552 46.1173V39.6702C54.5391 37.268 52.9911 29.989 52.3503 27.6406H52.796C54.0129 27.6406 55 26.6129 55 25.3459ZM16.1303 15.7813C16.5283 15.0427 16.9683 14.6526 18.392 14.4339C20.8199 14.0628 25.9029 13.9309 29.4998 13.9309C33.0967 13.9309 38.1798 14.0628 40.6077 14.4339C42.0313 14.6526 42.4712 15.0427 42.8693 15.7813C43.8847 17.669 45.0268 20.3532 45.8789 23.0508H13.1208C13.9729 20.3532 15.115 17.669 16.1303 15.7813ZM13.3172 36.2165C11.9338 36.2165 10.8116 35.0506 10.8116 33.6104C10.8116 32.1697 11.9338 31.0019 13.3172 31.0019C14.7002 31.0019 15.8224 32.1697 15.8224 33.6104C15.8223 35.0506 14.7002 36.2165 13.3172 36.2165ZM38.0337 36.2322H20.9667C20.4327 36.2322 20.0003 35.782 20.0003 35.2265C20.0003 34.6711 20.4327 34.2209 20.9667 34.2209H38.0337C38.5673 34.2209 38.9997 34.6711 38.9997 35.2265C38.9997 35.782 38.5672 36.2322 38.0337 36.2322ZM38.0337 32.2382H20.9667C20.4327 32.2382 20.0003 31.7885 20.0003 31.2326C20.0003 30.6771 20.4327 30.2264 20.9667 30.2264H38.0337C38.5673 30.2264 38.9997 30.6771 38.9997 31.2326C38.9996 31.7885 38.5672 32.2382 38.0337 32.2382ZM46.4886 36.2165C45.1043 36.2165 43.983 35.0506 43.983 33.6104C43.983 32.1697 45.1043 31.0019 46.4886 31.0019C47.8738 31.0019 48.9937 32.1697 48.9937 33.6104C48.9937 35.0506 47.8738 36.2165 46.4886 36.2165Z" fill="#FF4D24"/>
</g>
<defs>
<clipPath id="clip0_8_239">
<rect width="51" height="38" fill="white" transform="translate(4 11)"/>
</clipPath>
</defs>
</svg>
