<svg width="60" height="60" viewBox="0 0 60 60" fill="none" xmlns="http://www.w3.org/2000/svg">
<g clip-path="url(#clip0_8_195)">
<path d="M53.24 26.3154L51.5003 23.1244C51.0825 22.3585 50.0366 21.731 49.1755 21.731H47.2194C46.3698 21.731 45.6744 22.4302 45.6563 23.2916V25.6357C45.6563 26.2192 45.1922 26.6929 44.6186 26.6929C44.0451 26.6929 43.5784 26.2192 43.5784 25.6357V24.9188C43.5784 23.1658 42.1686 21.7311 40.4479 21.7311H38.782L38.2805 19.9114C38.0477 19.0678 37.1533 18.377 36.2931 18.377H34.0767V16.5168H35.9018C37.126 16.5168 38.1181 15.506 38.1181 14.2588C38.1181 13.0116 37.126 12 35.9018 12H20.2553C19.0312 12 18.039 13.0116 18.039 14.2588C18.039 15.506 19.0312 16.5168 20.2553 16.5168H22.0804V18.377H19.8641C19.0038 18.377 18.1095 19.0678 17.8766 19.9113L17.3751 21.731H14.3881C12.6665 21.731 11.2584 23.1657 11.2584 24.9187V29.037H9.17228V20.901C9.17228 20.0237 8.57553 19.6868 7.84532 20.1512L6.32686 21.1188C5.59675 21.5833 5 22.681 5 23.5576V27.2772C5 28.1537 5.46913 29.2296 6.04265 29.6686C6.61701 30.1069 7.08614 31.1827 7.08614 32.0591V32.5185C7.08614 33.395 6.91046 34.3078 6.69488 34.5468C6.47942 34.7867 6.30363 35.6994 6.30363 36.5759V40.9593C6.30363 41.8366 6.88542 42.958 7.59664 43.4521L7.87926 43.6488C8.59038 44.142 9.17228 43.8287 9.17228 42.9522V34.351H11.2584V38.4692C11.2584 40.2223 12.6665 41.6569 14.3881 41.6569H15.6205C17.342 41.6569 19.6328 42.7749 20.7111 44.1411L21.7961 45.5159C22.8752 46.8822 25.1661 48.0001 26.8875 48.0001H40.4478C42.1685 48.0001 43.5783 46.5655 43.5783 44.8125V41.7219C43.5783 41.1375 44.0449 40.6638 44.6185 40.6638C45.1921 40.6638 45.6562 41.1375 45.6562 41.7219V44.0811C45.6744 44.9425 46.3698 45.6424 47.2193 45.6424H49.1754C50.0365 45.6424 51.0825 45.015 51.5002 44.2491L53.2399 41.0581C53.6576 40.2913 53.9999 38.9471 53.9999 38.0705V29.303C54 28.4265 53.6576 27.0813 53.24 26.3154ZM24.7003 41.4984L28.0471 33.6918L20.2582 33.9181L31.6334 21.8205L28.2812 29.5541L35.9913 29.3768L24.7003 41.4984Z" fill="#FF4D24"/>
</g>
<defs>
<clipPath id="clip0_8_195">
<rect width="49" height="36" fill="white" transform="translate(5 12)"/>
</clipPath>
</defs>
</svg>
